# xmcd CD database file
#
# Track frame offsets:
#	150
#	14321
#	28515
#	44335
#	58755
#	71934
#	94223
#	108170
#	127399
#	146686
#	161217
#	175179
#	194287
#	208749
#	228236
#	241838
#	256587
#	274425
#	294159
#	312244
#	325336
#	342728
#
# Disc length: 4744 seconds
#
# Revision: 0
# Processed by: cddbd v1.5.2PL0 Copyright (c) Steve Scherf et al.
# Submitted via: CDex 1.51
#
DISCID=53128616
DTITLE=Agustin Arce - The Best Of
DYEAR=2009
DGENRE=Salsa
TTITLE0=Sangrando Por La Herida
TTITLE1=Apeate Y Oye
TTITLE2=Arbol Caido
TTITLE3=Cabio Sile Ye Yeo
TTITLE4=Formar El Bembe
TTITLE5=Cien  Fuegos
TTITLE6=Regresa
TTITLE7=Despierta Emilia
TTITLE8=Si Hecho Pa' Lante
TTITLE9=La Naturalesa
TTITLE10=Sujetate  La Lengua
TTITLE11=Nino  Malo
TTITLE12=Paseando Por La Calle
TTITLE13=Canto A Los Santos
TTITLE14=Aunque Mi Mami No Quiera
TTITLE15=Reliquias
TTITLE16=Mis Cosas  Favoritas
TTITLE17=Premio Mayor
TTITLE18=Yo Sin Ti Y Viceversa
TTITLE19=Velala
TTITLE20=Me Llamaste Cobarde
TTITLE21=Fuerza  De Cara
EXTD=YEAR: 2009
EXTT0=
EXTT1=
EXTT2=
EXTT3=
EXTT4=
EXTT5=
EXTT6=
EXTT7=
EXTT8=
EXTT9=
EXTT10=
EXTT11=
EXTT12=
EXTT13=
EXTT14=
EXTT15=
EXTT16=
EXTT17=
EXTT18=
EXTT19=
EXTT20=
EXTT21=
PLAYORDER=
